<svg width="1024" height="1014" viewBox="0 0 1024 1014" fill="none" xmlns="http://www.w3.org/2000/svg">
<path d="M1023.62 317.583C1023.62 555.433 804.868 942.615 496.348 1013.56C176.513 942.615 0 597.472 0 317.583C0 37.6954 183.895 0 496.348 0C808.8 0 1023.62 37.6954 1023.62 317.583Z" fill="#42EBED"/>
<path d="M1023.62 317.583C1023.62 555.433 804.868 942.615 496.348 1013.56C176.513 942.615 0 597.472 0 317.583C0 37.6954 183.895 0 496.348 0C808.8 0 1023.62 37.6954 1023.62 317.583Z" fill="black"/>
<path d="M1023.62 317.583C1023.62 555.433 804.868 942.615 496.348 1013.56C176.513 942.615 0 597.472 0 317.583C0 37.6954 183.895 0 496.348 0C808.8 0 1023.62 37.6954 1023.62 317.583Z" fill="#42EBED"/>
<path d="M962.854 336.246C962.854 548.994 768.621 820.308 494.684 883.77C210.701 820.308 53.9741 586.596 53.9741 336.246C53.9741 85.8952 217.255 126.533 494.684 126.533C772.112 126.533 962.854 85.8952 962.854 336.246Z" fill="black"/>
<path d="M962.854 336.246C962.854 548.994 768.621 820.308 494.684 883.77C210.701 820.308 53.9741 586.596 53.9741 336.246C53.9741 85.8952 217.255 126.533 494.684 126.533C772.112 126.533 962.854 85.8952 962.854 336.246Z" fill="#42EBED"/>
<path d="M962.854 336.246C962.854 548.994 768.621 820.308 494.684 883.77C210.701 820.308 53.9741 586.596 53.9741 336.246C53.9741 85.8952 217.255 126.533 494.684 126.533C772.112 126.533 962.854 85.8952 962.854 336.246Z" fill="black"/>
<path d="M152.109 487.305L205.007 487.571V504.605L152.109 504.339V487.305Z" fill="#42EBED"/>
<path d="M152.109 459.267L205.007 459.58V479.617L152.109 479.303V459.267Z" fill="#42EBED"/>
<path d="M152.109 487.305L205.007 487.571V504.605L152.109 504.339V487.305Z" fill="#42EBED"/>
<path d="M152.109 431.551L205.007 431.864V451.9L152.109 451.587V431.551Z" fill="#42EBED"/>
<path d="M152.109 402.458L205.007 402.771V422.808L152.109 422.495V402.458Z" fill="#42EBED"/>
<path d="M152.109 402.458L205.007 402.771V422.808L152.109 422.495V402.458Z" fill="#42EBED"/>
<path d="M520.741 459.263L573.638 459.576V479.613L520.741 479.3V459.263Z" fill="#42EBED"/>
<path d="M520.741 487.301L573.638 487.567V504.602L520.741 504.335V487.301Z" fill="#42EBED"/>
<path d="M520.741 431.547L573.638 431.86V451.897L520.741 451.584V431.547Z" fill="#42EBED"/>
<path d="M813.332 488.829L866.229 489.096V506.13L813.332 505.864V488.829Z" fill="#42EBED"/>
<path d="M813.332 460.792L866.229 461.105V481.141L813.332 480.828V460.792Z" fill="#42EBED"/>
<path d="M813.332 488.829L866.229 489.096V506.13L813.332 505.864V488.829Z" fill="#42EBED"/>
<path d="M813.332 433.075L866.229 433.388V453.425L813.332 453.112V433.075Z" fill="#42EBED"/>
<path d="M813.332 403.983L866.229 404.296V424.332L813.332 424.019V403.983Z" fill="#42EBED"/>
<path d="M813.332 403.983L866.229 404.296V424.332L813.332 424.019V403.983Z" fill="#42EBED"/>
<path d="M371.965 487.305L424.863 487.571V504.605L371.965 504.339V487.305Z" fill="#42EBED"/>
<path d="M371.965 459.267L424.863 459.58V479.617L371.965 479.304V459.267Z" fill="#42EBED"/>
<path d="M371.965 487.305L424.863 487.571V504.605L371.965 504.339V487.305Z" fill="#42EBED"/>
<path d="M371.965 431.551L424.863 431.864V451.9L371.965 451.587V431.551Z" fill="#42EBED"/>
<path d="M371.965 403.983L424.863 404.296V424.332L371.965 424.019V403.983Z" fill="#42EBED"/>
<path d="M371.965 403.983L424.863 404.296V424.332L371.965 424.019V403.983Z" fill="#42EBED"/>
<path d="M371.965 376.01L424.863 376.3V394.835L371.965 394.546V376.01Z" fill="#42EBED"/>
<path d="M371.965 347.972L424.863 348.285V368.322L371.965 368.009V347.972Z" fill="#42EBED"/>
<path d="M371.965 376.01L424.863 376.3V394.835L371.965 394.546V376.01Z" fill="#42EBED"/>
<path d="M371.965 320.256L424.863 320.569V340.606L371.965 340.293V320.256Z" fill="#42EBED"/>
<path d="M371.965 291.163L424.863 291.476V311.513L371.965 311.2V291.163Z" fill="#42EBED"/>
<path d="M371.965 291.163L424.863 291.476V311.513L371.965 311.2V291.163Z" fill="#42EBED"/>
<path d="M371.965 262.196L424.863 262.509V282.546L371.965 282.233V262.196Z" fill="#42EBED"/>
<path d="M371.965 262.196L424.863 262.509V282.546L371.965 282.233V262.196Z" fill="#42EBED"/>
<path d="M226.497 487.305L279.395 487.571V504.605L226.497 504.339V487.305Z" fill="#42EBED"/>
<path d="M226.497 457.743L279.395 458.056V478.092L226.497 477.779V457.743Z" fill="#42EBED"/>
<path d="M226.497 487.305L279.395 487.571V504.605L226.497 504.339V487.305Z" fill="#42EBED"/>
<path d="M226.497 430.026L279.395 430.339V450.376L226.497 450.063V430.026Z" fill="#42EBED"/>
<path d="M226.497 402.458L279.395 402.771V422.808L226.497 422.495V402.458Z" fill="#42EBED"/>
<path d="M226.497 402.458L279.395 402.771V422.808L226.497 422.495V402.458Z" fill="#42EBED"/>
<path d="M226.497 375.016L279.395 375.329V395.365L226.497 395.052V375.016Z" fill="#42EBED"/>
<path d="M226.497 375.016L279.395 375.329V395.365L226.497 395.052V375.016Z" fill="#42EBED"/>
<path d="M226.497 347.573L279.395 347.886V367.923L226.497 367.61V347.573Z" fill="#42EBED"/>
<path d="M226.497 347.573L279.395 347.886V367.923L226.497 367.61V347.573Z" fill="#42EBED"/>
<path d="M740.598 487.305L793.495 487.571V504.605L740.598 504.339V487.305Z" fill="#42EBED"/>
<path d="M740.598 457.743L793.495 458.056V478.092L740.598 477.779V457.743Z" fill="#42EBED"/>
<path d="M740.598 487.305L793.495 487.571V504.605L740.598 504.339V487.305Z" fill="#42EBED"/>
<path d="M740.598 430.026L793.495 430.339V450.376L740.598 450.063V430.026Z" fill="#42EBED"/>
<path d="M740.598 402.458L793.495 402.771V422.808L740.598 422.495V402.458Z" fill="#42EBED"/>
<path d="M740.598 402.458L793.495 402.771V422.808L740.598 422.495V402.458Z" fill="#42EBED"/>
<path d="M740.598 375.016L793.495 375.329V395.365L740.598 395.052V375.016Z" fill="#42EBED"/>
<path d="M740.598 375.016L793.495 375.329V395.365L740.598 395.052V375.016Z" fill="#42EBED"/>
<path d="M740.598 347.573L793.495 347.886V367.923L740.598 367.61V347.573Z" fill="#42EBED"/>
<path d="M740.598 347.573L793.495 347.886V367.923L740.598 367.61V347.573Z" fill="#42EBED"/>
<path d="M299.231 487.303L352.129 487.57V504.604L299.231 504.338V487.303Z" fill="#42EBED"/>
<path d="M299.231 457.741L352.129 458.054V478.091L299.231 477.778V457.741Z" fill="#42EBED"/>
<path d="M299.231 487.303L352.129 487.57V504.604L299.231 504.338V487.303Z" fill="#42EBED"/>
<path d="M299.231 430.025L352.129 430.338V450.375L299.231 450.062V430.025Z" fill="#42EBED"/>
<path d="M299.231 403.981L352.129 404.294V424.331L299.231 424.018V403.981Z" fill="#42EBED"/>
<path d="M299.231 403.981L352.129 404.294V424.331L299.231 424.018V403.981Z" fill="#42EBED"/>
<path d="M299.231 375.014L352.129 375.327V395.364L299.231 395.051V375.014Z" fill="#42EBED"/>
<path d="M299.231 375.014L352.129 375.327V395.364L299.231 395.051V375.014Z" fill="#42EBED"/>
<path d="M299.231 347.26L352.129 347.573V367.609L299.231 367.296V347.26Z" fill="#42EBED"/>
<path d="M299.231 347.26L352.129 347.573V367.609L299.231 367.296V347.26Z" fill="#42EBED"/>
<path d="M299.231 319.817L352.129 320.13V340.167L299.231 339.854V319.817Z" fill="#42EBED"/>
<path d="M299.231 319.817L352.129 320.13V340.167L299.231 339.854V319.817Z" fill="#42EBED"/>
<path d="M666.209 487.617L719.107 487.883V504.917L666.209 504.651V487.617Z" fill="#42EBED"/>
<path d="M666.209 458.055L719.107 458.368V478.404L666.209 478.091V458.055Z" fill="#42EBED"/>
<path d="M666.209 487.617L719.107 487.883V504.917L666.209 504.651V487.617Z" fill="#42EBED"/>
<path d="M666.209 430.338L719.107 430.651V450.688L666.209 450.375V430.338Z" fill="#42EBED"/>
<path d="M666.209 404.295L719.107 404.608V424.645L666.209 424.331V404.295Z" fill="#42EBED"/>
<path d="M666.209 404.295L719.107 404.608V424.645L666.209 424.331V404.295Z" fill="#42EBED"/>
<path d="M666.209 375.328L719.107 375.641V395.677L666.209 395.364V375.328Z" fill="#42EBED"/>
<path d="M666.209 375.328L719.107 375.641V395.677L666.209 395.364V375.328Z" fill="#42EBED"/>
<path d="M666.209 347.573L719.107 347.886V367.923L666.209 367.61V347.573Z" fill="#42EBED"/>
<path d="M666.209 347.573L719.107 347.886V367.923L666.209 367.61V347.573Z" fill="#42EBED"/>
<path d="M666.209 320.13L719.107 320.444V340.48L666.209 340.167V320.13Z" fill="#42EBED"/>
<path d="M666.209 320.13L719.107 320.444V340.48L666.209 340.167V320.13Z" fill="#42EBED"/>
<path d="M446.353 458.055L499.251 458.368V478.404L446.353 478.091V458.055Z" fill="#42EBED"/>
<path d="M446.353 487.617L499.251 487.883V504.918L446.353 504.651V487.617Z" fill="#42EBED"/>
<path d="M446.353 430.338L499.251 430.651V450.688L446.353 450.375V430.338Z" fill="#42EBED"/>
<path d="M446.353 404.295L499.251 404.608V424.645L446.353 424.332V404.295Z" fill="#42EBED"/>
<path d="M446.353 404.295L499.251 404.608V424.645L446.353 424.332V404.295Z" fill="#42EBED"/>
<path d="M446.353 375.328L499.251 375.641V395.678L446.353 395.364V375.328Z" fill="#42EBED"/>
<path d="M446.353 375.328L499.251 375.641V395.678L446.353 395.364V375.328Z" fill="#42EBED"/>
<path d="M446.353 347.573L499.251 347.886V367.923L446.353 367.61V347.573Z" fill="#42EBED"/>
<path d="M446.353 347.573L499.251 347.886V367.923L446.353 367.61V347.573Z" fill="#42EBED"/>
<path d="M591.822 458.053L644.72 458.366V478.403L591.822 478.09V458.053Z" fill="#42EBED"/>
<path d="M591.822 487.615L644.72 487.881V504.916L591.822 504.65V487.615Z" fill="#42EBED"/>
<path d="M591.822 430.337L644.72 430.65V450.686L591.822 450.373V430.337Z" fill="#42EBED"/>
<path d="M591.822 404.293L644.72 404.606V424.643L591.822 424.33V404.293Z" fill="#42EBED"/>
<path d="M591.822 404.293L644.72 404.606V424.643L591.822 424.33V404.293Z" fill="#42EBED"/>
<path d="M591.822 375.326L644.72 375.639V395.676L591.822 395.363V375.326Z" fill="#42EBED"/>
<path d="M591.822 375.326L644.72 375.639V395.676L591.822 395.363V375.326Z" fill="#42EBED"/>
</svg>
